<svg xmlns="http://www.w3.org/2000/svg" viewBox="0 0 750 500"><defs><style>.cls-1{fill:#2b2b2b;}</style></defs><title>circuito</title><g id="BACKGROUND_1" data-name="BACKGROUND 1"><path class="cls-1" d="M51.92,117.8a4.76,4.76,0,1,0,0,2h61.47L225.63,7.57l-1.42-1.42L112.56,117.8Zm-4.65,3.76A2.76,2.76,0,1,1,50,118.8,2.76,2.76,0,0,1,47.27,121.56Z"/><path class="cls-1" d="M740.08,184.39a4.76,4.76,0,0,0-4.76,4.76,4.71,4.71,0,0,0,.77,2.57L691.83,236H538.52l-.21-.2-.2.2H389v.17H332.68l-20.56,20.56a4.69,4.69,0,0,0-2.58-.77,4.78,4.78,0,1,0,4,2.18l20-20H446.23V238h91.46l62.48,62.48H568.23a4.76,4.76,0,1,0,0,2h33.94l.39.39h.85L622.53,322a4.71,4.71,0,0,0-.52,2.12,4.82,4.82,0,1,0,1.78-3.68l-17.55-17.56H659.8l15.67,15.67-22.61,22.61H544.07L527.35,324.4a4.7,4.7,0,0,0,.76-2.57,4.76,4.76,0,1,0-4.75,4.75,4.63,4.63,0,0,0,2.57-.77l17.31,17.32H653.69l23.19-23.2L723,366.06a4.71,4.71,0,0,0-.77,2.57,4.76,4.76,0,1,0,4.76-4.75,4.63,4.63,0,0,0-2.57.77L678.3,318.52l11.46-11.47h44.17v-2h-45l-12,12.05-16.25-16.25H604.24l-.39-.39H603L540.52,238H692.66l44.84-44.84a4.75,4.75,0,1,0,2.58-8.75ZM309.54,263.45a2.76,2.76,0,1,1,2.76-2.76A2.76,2.76,0,0,1,309.54,263.45Zm254,40.77a2.76,2.76,0,1,1,2.76-2.76A2.76,2.76,0,0,1,563.58,304.22Zm63.19,17.11a2.76,2.76,0,1,1-2.76,2.76A2.76,2.76,0,0,1,626.77,321.33Zm-106.17.5a2.76,2.76,0,1,1,2.76,2.75A2.77,2.77,0,0,1,520.6,321.83ZM727,365.88a2.76,2.76,0,1,1-2.76,2.75A2.76,2.76,0,0,1,727,365.88Zm13.08-174a2.76,2.76,0,1,1,2.75-2.75A2.76,2.76,0,0,1,740.08,191.9Z"/><path class="cls-1" d="M274.74,193h25.39a4.74,4.74,0,1,0-.13-2H275.57l-28.95-28.95H132.14L82.56,211.68A4.78,4.78,0,1,0,84,213.09l49-49H245.79Zm29.95-4a2.76,2.76,0,1,1-2.76,2.75A2.75,2.75,0,0,1,304.69,189ZM80,218.42a2.76,2.76,0,1,1,2.75-2.75A2.76,2.76,0,0,1,80,218.42Z"/><path class="cls-1" d="M250.32,456.27a4.75,4.75,0,0,0-4.68,4H221.21l-29-28.94H77.78L28.2,481a4.75,4.75,0,1,0,2.18,4,4.71,4.71,0,0,0-.77-2.57l49-49H191.43l28.95,28.94h25.39a4.75,4.75,0,1,0,4.55-6ZM25.62,487.69a2.76,2.76,0,1,1,2.76-2.75A2.75,2.75,0,0,1,25.62,487.69Zm224.7-23.91a2.76,2.76,0,1,1,2.76-2.76A2.76,2.76,0,0,1,250.32,463.78Z"/><path class="cls-1" d="M545.65,434.88l-13.94-13.94H420.06a4.76,4.76,0,1,0,0,2H530.88l13.94,13.94H675.65l22.28,22.28H552.3a4.76,4.76,0,1,0,0,2h32.79l-18.56,18.56A4.71,4.71,0,0,0,564,479a4.76,4.76,0,1,0,4.76,4.76,4.71,4.71,0,0,0-.77-2.57l19.56-19.56,19.1,19.09a4.61,4.61,0,0,0-.52,2.12,4.82,4.82,0,1,0,1.78-3.68l-18-17.95h110L724,485.23l1.41-1.41-48.94-48.94ZM415.41,424.7a2.76,2.76,0,1,1,2.76-2.76A2.76,2.76,0,0,1,415.41,424.7Zm132.25,38.22a2.76,2.76,0,1,1,2.75-2.76A2.77,2.77,0,0,1,547.66,462.92ZM564,486.46a2.76,2.76,0,1,1,2.76-2.75A2.75,2.75,0,0,1,564,486.46ZM610.84,480a2.76,2.76,0,1,1-2.75,2.76A2.77,2.77,0,0,1,610.84,480Z"/><path class="cls-1" d="M732.12,411.87a4.71,4.71,0,0,0-3,1.07L690.22,374H555.79L537.7,355.91H512.58V337.52l-40.81-40.81H389v2h81.95l39.64,39.64v17.56H432.42l-33.24-33.23h33.93v-2H397.18l-28.5-28.51H349.94L384,258.1h44.17v-2h-45l-36.08,36.07H238.33L221.6,275.45a4.78,4.78,0,1,0-1.41,1.41l16.53,16.54v.77H367.85l26.5,26.51H365.86l-11.67,11.66H232.8l-26-26h-162L13.91,275.45a4.78,4.78,0,1,0-1.41,1.41L44,308.38H206l26,26H355l11.67-11.66h29.66l35.24,35.23h79v13.34L475.82,406a4.87,4.87,0,1,0,1.37,1.46l35.39-35.4V357.91h24.29L555,376H689.39l38.5,38.5a4.62,4.62,0,0,0-.53,2.12,4.76,4.76,0,1,0,4.76-4.75Zm-517.26-139a2.76,2.76,0,1,1,2.75,2.76A2.75,2.75,0,0,1,214.86,272.87ZM9.92,275.63a2.76,2.76,0,1,1,2.76-2.76A2.76,2.76,0,0,1,9.92,275.63ZM473.15,412.69a2.76,2.76,0,1,1,2.75-2.75A2.76,2.76,0,0,1,473.15,412.69Zm259,6.69a2.76,2.76,0,1,1,2.75-2.76A2.77,2.77,0,0,1,732.12,419.38Z"/><path class="cls-1" d="M315,25.05a4.77,4.77,0,0,0,2.58-.77L334.9,41.59h57.85l53.88,53.89h57.25l63.21,63.21a4.74,4.74,0,0,0,4,7.33,4.76,4.76,0,1,0,0-9.51,4.65,4.65,0,0,0-2.57.77l-63.8-63.8H447.46L395.57,41.59h42.24l24.25,24.25H519.3l47.79,47.78a4.78,4.78,0,1,0,1.41-1.41L520.13,63.84H462.89L440.64,41.59h4.7L481.42,5.52h44.17v-2h-45L444.52,39.59h-5.88L405.12,6.08l-1.41,1.41,32.1,32.1H393.57L382.39,28.41,381,29.82l9.78,9.77h-55L319,22.87a4.75,4.75,0,1,0-4,2.18ZM571.07,158.51a2.76,2.76,0,1,1-2.75,2.75A2.76,2.76,0,0,1,571.07,158.51Zm0-45.07a2.76,2.76,0,1,1-2.75,2.76A2.77,2.77,0,0,1,571.07,113.44ZM315,17.54a2.76,2.76,0,1,1-2.75,2.75A2.76,2.76,0,0,1,315,17.54Z"/><path class="cls-1" d="M424.11,470.27H315.32l-16.73-16.73a4.63,4.63,0,0,0,.77-2.57,4.76,4.76,0,1,0-4.75,4.75,4.7,4.7,0,0,0,2.57-.76l17.31,17.31h38.65l-18.56,18.56a4.75,4.75,0,1,0-2.57,8.74,4.74,4.74,0,0,0,4-7.33l20-20H468.69v-2H426.94L461,436.2h44.17v-2h-45ZM291.85,451a2.76,2.76,0,1,1,2.76,2.75A2.77,2.77,0,0,1,291.85,451ZM332,497.57a2.76,2.76,0,1,1,2.76-2.75A2.75,2.75,0,0,1,332,497.57Z"/><path class="cls-1" d="M489.67,167.2H376.12l-20.56,20.56a4.75,4.75,0,1,0,2.18,4,4.71,4.71,0,0,0-.77-2.57l20-20H489.67ZM353,194.51a2.76,2.76,0,1,1,2.76-2.76A2.76,2.76,0,0,1,353,194.51Z"/><path class="cls-1" d="M87.5,367.46,66.94,388a4.71,4.71,0,0,0-2.57-.77,4.78,4.78,0,1,0,4,2.18l20-20H199.85l-41,41a4.82,4.82,0,1,0,1.41,1.42l58.41-58.41h91.68a4.76,4.76,0,1,0,0-2H217.86l-16.81,16.81v-.8Zm-23.13,27.3A2.76,2.76,0,1,1,67.13,392,2.76,2.76,0,0,1,64.37,394.76ZM315,349.69a2.76,2.76,0,1,1-2.75,2.76A2.77,2.77,0,0,1,315,349.69ZM156.29,417.18a2.76,2.76,0,1,1,2.76-2.75A2.75,2.75,0,0,1,156.29,417.18Z"/><path class="cls-1" d="M332.87,347.69a4.76,4.76,0,0,0,0,9.51,4.69,4.69,0,0,0,2.58-.77l40.76,40.77H409l24.8-24.8L432.4,371,408.19,395.2H377L336.86,355a4.71,4.71,0,0,0,.77-2.57A4.76,4.76,0,0,0,332.87,347.69Zm0,7.51a2.76,2.76,0,1,1,2.76-2.75A2.75,2.75,0,0,1,332.87,355.2Z"/><path class="cls-1" d="M64.37,277.63A4.77,4.77,0,0,0,69,273.87H183.77l55-55H378.38a4.63,4.63,0,1,0,0-2H237.92l-55,55H69a4.76,4.76,0,1,0-4.65,5.76Zm318.52-62.36a2.63,2.63,0,1,1-2.63,2.63A2.63,2.63,0,0,1,382.89,215.27ZM64.37,270.12a2.76,2.76,0,1,1-2.76,2.75A2.76,2.76,0,0,1,64.37,270.12Z"/><path class="cls-1" d="M537.17,45.3a4.71,4.71,0,0,0,2.38-.67l26.19,26.2-2.82,2.83a4.69,4.69,0,0,0-2.58-.77,4.78,4.78,0,1,0,4,2.18l2.83-2.83,27,27v71.4l-37.09,37.09H389v2H557.91l35.59-35.59a4.74,4.74,0,0,0,9.36.61h35.62l18.67,18.67a4.88,4.88,0,0,0-.38,1.87,4.8,4.8,0,1,0,1.57-3.51l-19-19H602.86a4.72,4.72,0,0,0-6.69-3.27V98.43l-27.6-27.6,9.75-9.75,23.8,23.81h57.25l63.21,63.22a4.71,4.71,0,0,0-.77,2.57,4.78,4.78,0,1,0,2.18-4L660.2,82.89H603L579.73,59.67l43-43h91.67a4.75,4.75,0,1,0,0-2h-92.5l-43.59,43.6L537.88,17.82l-1.41,1.42L576.9,59.67l-9.74,9.74L541,43.29a4.68,4.68,0,0,0,.89-2.75,4.76,4.76,0,1,0-4.76,4.76Zm23.17,35.1a2.76,2.76,0,1,1,2.76-2.76A2.76,2.76,0,0,1,560.34,80.4ZM661.53,192.55a2.76,2.76,0,1,1-2.76,2.76A2.76,2.76,0,0,1,661.53,192.55ZM598.22,171a2.76,2.76,0,1,1-2.76,2.75A2.75,2.75,0,0,1,598.22,171Zm128.35-23.1a2.76,2.76,0,1,1-2.76,2.76A2.76,2.76,0,0,1,726.57,147.92Zm-7.51-135a2.76,2.76,0,1,1-2.76,2.75A2.75,2.75,0,0,1,719.06,12.91ZM537.17,37.79a2.76,2.76,0,1,1-2.75,2.75A2.76,2.76,0,0,1,537.17,37.79Z"/><path class="cls-1" d="M164.63,114.05a4.78,4.78,0,1,0,4,2.18L227,57.82H318.7a4.76,4.76,0,1,0,0-2H226.2l-59,59A4.7,4.7,0,0,0,164.63,114.05Zm158.72-60a2.76,2.76,0,1,1-2.76,2.76A2.76,2.76,0,0,1,323.35,54.06Zm-158.72,67.5a2.76,2.76,0,1,1,2.76-2.76A2.76,2.76,0,0,1,164.63,121.56Z"/><path class="cls-1" d="M17.3,88.81a4.76,4.76,0,0,0,4.75-4.76,4.7,4.7,0,0,0-.76-2.57l58.4-58.41h71.66l-55,55a4.79,4.79,0,1,0,1.41,1.43l56.43-56.44h17.19a4.75,4.75,0,1,0,0-2H156.18L172.57,4.68l-1.41-1.41-17.81,17.8H78.87l-59,59a4.71,4.71,0,0,0-2.57-.77,4.76,4.76,0,1,0,0,9.51Zm76.44-4a2.76,2.76,0,1,1,2.76-2.75A2.75,2.75,0,0,1,93.74,84.81ZM176,19.32a2.76,2.76,0,1,1-2.75,2.75A2.76,2.76,0,0,1,176,19.32ZM17.3,81.3a2.76,2.76,0,1,1-2.76,2.75A2.75,2.75,0,0,1,17.3,81.3Z"/><path class="cls-1" d="M27.61,395.87a4.7,4.7,0,0,0-.76-2.57l58.4-58.41h91.68a4.76,4.76,0,1,0,0-2H84.43l-59,59a4.71,4.71,0,0,0-2.57-.77,4.76,4.76,0,1,0,4.75,4.76Zm154-64.74a2.76,2.76,0,1,1-2.75,2.76A2.77,2.77,0,0,1,181.57,331.13ZM20.1,395.87a2.76,2.76,0,1,1,2.76,2.75A2.77,2.77,0,0,1,20.1,395.87Z"/><path class="cls-1" d="M223.89,134.47l32.66-32.66h77.77l32-32a4.75,4.75,0,1,0-2.18-4,4.71,4.71,0,0,0,.77,2.57L333.49,99.81H255.72l-32.66,32.66H104.64L25.43,211.68a4.71,4.71,0,0,0-2.57-.77,4.76,4.76,0,1,0,4,2.18l78.62-78.62Zm145-71.37a2.76,2.76,0,1,1-2.76,2.76A2.76,2.76,0,0,1,368.86,63.1Zm-346,155.32a2.76,2.76,0,1,1,2.75-2.75A2.76,2.76,0,0,1,22.86,218.42Z"/><path class="cls-1" d="M363.41,146.39a4.76,4.76,0,1,0,0-9.51,4.69,4.69,0,0,0-3.18,1.25l-19-19H304.75a4.76,4.76,0,1,0,0,2h35.62L359,139.77a4.7,4.7,0,0,0-.38,1.87A4.75,4.75,0,0,0,363.41,146.39ZM300.1,122.86a2.76,2.76,0,1,1,2.76-2.76A2.76,2.76,0,0,1,300.1,122.86Zm63.31,16a2.76,2.76,0,1,1-2.75,2.76A2.77,2.77,0,0,1,363.41,138.88Z"/><path class="cls-1" d="M521.32,157.16a4.76,4.76,0,1,0,0-9.51,4.69,4.69,0,0,0-3.18,1.25l-19-19H462.66a4.76,4.76,0,1,0,0,2h35.62L517,150.54a4.62,4.62,0,0,0-.38,1.86A4.76,4.76,0,0,0,521.32,157.16ZM458,133.63a2.76,2.76,0,1,1,2.76-2.76A2.76,2.76,0,0,1,458,133.63Zm63.31,16a2.76,2.76,0,1,1-2.75,2.75A2.76,2.76,0,0,1,521.32,149.65Z"/><path class="cls-1" d="M511.14,284.64a4.76,4.76,0,1,0,0-9.51,4.71,4.71,0,0,0-3.18,1.25l-19-19H452.48a4.76,4.76,0,1,0,0,2H488.1L506.77,278a4.8,4.8,0,0,0-.38,1.87A4.75,4.75,0,0,0,511.14,284.64Zm-63.3-23.53a2.76,2.76,0,1,1,2.75-2.76A2.77,2.77,0,0,1,447.84,261.11Zm63.3,16a2.76,2.76,0,1,1-2.75,2.76A2.77,2.77,0,0,1,511.14,277.13Z"/><path class="cls-1" d="M332.87,163.84a4.76,4.76,0,1,0-3-8.43L310,135.46H274.33a4.76,4.76,0,1,0,0,2h34.8L328.64,157a4.72,4.72,0,0,0,4.23,6.87Zm-63.18-24.62a2.76,2.76,0,1,1,2.75-2.76A2.77,2.77,0,0,1,269.69,139.22Zm63.18,17.11a2.76,2.76,0,1,1-2.75,2.76A2.77,2.77,0,0,1,332.87,156.33Z"/><path class="cls-1" d="M184.13,230.34a4.76,4.76,0,1,0,0-9.51,4.71,4.71,0,0,0-3,1.07L161.21,202H125.59a4.75,4.75,0,1,0,0,2h34.8l19.51,19.51a4.58,4.58,0,0,0-.52,2.12A4.75,4.75,0,0,0,184.13,230.34ZM121,205.71A2.76,2.76,0,1,1,123.7,203,2.76,2.76,0,0,1,121,205.71Zm63.18,17.12a2.76,2.76,0,1,1-2.75,2.76A2.77,2.77,0,0,1,184.13,222.83Z"/><path class="cls-1" d="M693.12,88a4.76,4.76,0,0,0,0-9.51,4.69,4.69,0,0,0-3,1.07L670.2,59.57H634.58a4.76,4.76,0,1,0,0,2h34.79l19.51,19.51A4.72,4.72,0,0,0,693.12,88ZM629.93,63.33a2.76,2.76,0,1,1,2.76-2.76A2.76,2.76,0,0,1,629.93,63.33Zm63.19,17.12a2.76,2.76,0,1,1-2.76,2.75A2.75,2.75,0,0,1,693.12,80.45Z"/><path class="cls-1" d="M293.52,395.87,313,415.38a4.75,4.75,0,1,0,9,2.12,4.73,4.73,0,0,0-7.73-3.69l-19.94-19.94H258.72a4.75,4.75,0,1,0,0,2Zm23.75,18.87a2.76,2.76,0,1,1-2.76,2.76A2.76,2.76,0,0,1,317.27,414.74Zm-63.19-17.12a2.76,2.76,0,1,1,2.75-2.75A2.76,2.76,0,0,1,254.08,397.62Z"/><path class="cls-1" d="M160.69,476.94a4.75,4.75,0,0,0-3,1.08l-19.94-19.95H102.15a4.76,4.76,0,1,0,0,2h34.79l19.51,19.51a4.74,4.74,0,1,0,4.24-2.64ZM97.5,461.83a2.76,2.76,0,1,1,2.76-2.76A2.77,2.77,0,0,1,97.5,461.83Zm63.19,22.63a2.76,2.76,0,1,1,2.75-2.76A2.77,2.77,0,0,1,160.69,484.46Z"/></g></svg>